Coordinates
version=1
nRows=19
nColumns=24
inDegrees=yes

Units are S.I. units (second, meters, Newtons, ...)
Angles are in degrees.

endheader
time	pelvis_tilt	pelvis_list	pelvis_rotation	pelvis_tx	pelvis_ty	pelvis_tz	hip_flexion_r	hip_adduction_r	hip_rotation_r	knee_angle_r	ankle_angle_r	subtalar_angle_r	mtp_angle_r	hip_flexion_l	hip_adduction_l	hip_rotation_l	knee_angle_l	ankle_angle_l	subtalar_angle_l	mtp_angle_l	lumbar_extension	lumbar_bending	lumbar_rotation
      9.83000000	     52.26464614	     -6.59788915	     -1.63588925	     -0.56749622	      1.10030797	     -0.08892283	     21.06841343	    -13.48966493	     -2.80930229	    -69.06609752	    -11.98337554	      4.70562363	      0.00000000	     20.03426287	     -8.05961536	     -1.34377496	    -39.36878612	    -12.31000121	     17.52409046	      0.00000000	      0.00000000	      0.00000000	      0.00000000
      9.84000000	     52.25282641	     -6.59808754	     -1.67560142	     -0.56749876	      1.10034486	     -0.08875956	     21.08850082	    -13.47321587	     -2.76054811	    -69.07505459	    -11.95528433	      4.70333432	      0.00000000	     20.05619758	     -7.95028037	     -1.30755922	    -39.89309969	    -12.16127232	     17.67036583	      0.00000000	      0.00000000	      0.00000000	      0.00000000
      9.85000000	     52.24298023	     -6.60633036	     -1.71342501	     -0.56747828	      1.10039484	     -0.08861918	     21.10803217	    -13.45350923	     -2.71635684	    -69.08574494	    -11.92424236	      4.70072817	      0.00000000	     20.05571015	     -7.87418202	     -1.29266395	    -40.47778760	    -11.99376561	     17.80770532	      0.00000000	      0.00000000	      0.00000000	      0.00000000
      9.86000000	     52.23397629	     -6.62236422	     -1.74741331	     -0.56741752	      1.10038868	     -0.08852600	     21.12595337	    -13.43147699	     -2.67692846	    -69.09854469	    -11.89471988	      4.69841988	      0.00000000	     20.03590572	     -7.83247839	     -1.29740322	    -41.13219687	    -11.81473711	     17.93266395	      0.00000000	      0.00000000	      0.00000000	      0.00000000
      9.87000000	     52.22813129	     -6.64357136	     -1.77940466	     -0.56731790	      1.10029594	     -0.08847116	     21.13798102	    -13.40693128	     -2.64089437	    -69.11460760	    -11.87011447	      4.69869953	      0.00000000	     20.00650606	     -7.82307918	     -1.31764266	    -41.87186782	    -11.63241466	     18.04022745	      0.00000000	      0.00000000	      0.00000000	      0.00000000
      9.88000000	     52.23171535	     -6.66719092	     -1.81381415	     -0.56721780	      1.10022676	     -0.08839453	     21.13924801	    -13.37873482	     -2.60681347	    -69.13520875	    -11.85154269	      4.70443390	      0.00000000	     19.98080900	     -7.84171635	     -1.34846594	    -42.71173272	    -11.45446419	     18.12469302	      0.00000000	      0.00000000	      0.00000000	      0.00000000
      9.89000000	     52.24833759	     -6.69200530	     -1.85247395	     -0.56714983	      1.10027987	     -0.08826811	     21.12809467	    -13.34634929	     -2.57420617	    -69.16103301	    -11.83697255	      4.71768361	      0.00000000	     19.96496646	     -7.88635793	     -1.38616325	    -43.65834357	    -11.28630169	     18.18070281	      0.00000000	      0.00000000	      0.00000000	      0.00000000
      9.90000000	     52.27425895	     -6.71920053	     -1.89154572	     -0.56709363	      1.10036153	     -0.08815134	     21.10703108	    -13.31070360	     -2.54393555	    -69.19195713	    -11.82131468	      4.73872361	      0.00000000	     19.95214282	     -7.95940731	     -1.42937266	    -44.70461971	    -11.13008362	     18.20422886	      0.00000000	      0.00000000	      0.00000000	      0.00000000
      9.91000000	     52.30486237	     -6.75251623	     -1.92523582	     -0.56700526	      1.10035862	     -0.08809722	     21.07980757	    -13.27308630	     -2.51822233	    -69.22737996	    -11.79783373	      4.76592055	      0.00000000	     19.93149886	     -8.06381560	     -1.47848896	    -45.83050134	    -10.98504311	     18.19362033	      0.00000000	      0.00000000	      0.00000000	      0.00000000
      9.92000000	     52.34023977	     -6.79536729	     -1.95080313	     -0.56687392	      1.10029645	     -0.08809633	     21.04790190	    -13.23363271	     -2.49994658	    -69.26645202	    -11.76049428	      4.79638179	      0.00000000	     19.89728505	     -8.19959986	     -1.53327638	    -47.01156269	    -10.84899159	     18.15091935	      0.00000000	      0.00000000	      0.00000000	      0.00000000
      9.93000000	     52.38230190	     -6.84734663	     -1.96910891	     -0.56672722	      1.10023593	     -0.08813087	     21.00987941	    -13.19162337	     -2.49090804	    -69.30776637	    -11.70631826	      4.82691976	      0.00000000	     19.84755671	     -8.36463866	     -1.59045038	    -48.23048353	    -10.71995390	     18.08331853	      0.00000000	      0.00000000	      0.00000000	      0.00000000
      9.94000000	     52.43198673	     -6.90502035	     -1.98242338	     -0.56658592	      1.10018751	     -0.08819515	     20.96331731	    -13.14710853	     -2.49022923	    -69.34907756	    -11.63695884	      4.85495344	      0.00000000	     19.78099746	     -8.55558837	     -1.64358907	    -49.48218240	    -10.59698742	     18.00408354	      0.00000000	      0.00000000	      0.00000000	      0.00000000
      9.95000000	     52.48959308	     -6.96452796	     -1.99300471	     -0.56644406	      1.10013930	     -0.08827746	     20.90665144	    -13.10195000	     -2.49450209	    -69.38774549	    -11.55902210	      4.87913572	      0.00000000	     19.69694169	     -8.76801538	     -1.68482853	    -50.77019879	    -10.48005963	     17.93194678	      0.00000000	      0.00000000	      0.00000000	      0.00000000
      9.96000000	     52.55482815	     -7.02196534	     -2.00324280	     -0.56629749	      1.10009061	     -0.08836471	     20.83953654	    -13.05959946	     -2.49980311	    -69.42184040	    -11.48288606	      4.89956261	      0.00000000	     19.59626467	     -8.99766886	     -1.70647417	    -52.09863849	    -10.36950486	     17.88825059	      0.00000000	      0.00000000	      0.00000000	      0.00000000
      9.97000000	     52.62634281	     -7.07305831	     -2.01557590	     -0.56615737	      1.10004816	     -0.08845787	     20.76301295	    -13.02405140	     -2.50423620	    -69.45101981	    -11.42006413	      4.91751121	      0.00000000	     19.48143247	     -9.24205152	     -1.70231279	    -53.46471851	    -10.26571001	     17.89196674	      0.00000000	      0.00000000	      0.00000000	      0.00000000
      9.98000000	     52.70192220	     -7.11468817	     -2.03076238	     -0.56603330	      1.10002824	     -0.08856677	     20.68089211	    -12.99866971	     -2.50925572	    -69.47636219	    -11.37983854	      4.93482929	      0.00000000	     19.35533422	     -9.50059916	     -1.66868778	    -54.85622354	    -10.16952531	     17.95381289	      0.00000000	      0.00000000	      0.00000000	      0.00000000
      9.99000000	     52.77851008	     -7.14743888	     -2.04570430	     -0.56591833	      1.10005631	     -0.08868858	     20.60077568	    -12.98525456	     -2.51881447	    -69.49954878	    -11.36654669	      4.95328523	      0.00000000	     19.21942247	     -9.77343616	     -1.60459381	    -56.25624905	    -10.08354355	     18.07151186	      0.00000000	      0.00000000	      0.00000000	      0.00000000
     10.00000000	     52.85163119	     -7.17569352	     -2.05368056	     -0.56579451	      1.10011523	     -0.08881896	     20.53177068	    -12.98339275	     -2.53686327	    -69.52238916	    -11.37861671	      4.97415731	      0.00000000	     19.07354464	    -10.06034456	     -1.51016985	    -57.65332589	    -10.01376424	     18.22828149	      0.00000000	      0.00000000	      0.00000000	      0.00000000
     10.01000000	     52.91618212	     -7.20430576	     -2.04861768	     -0.56565896	      1.10009187	     -0.08899193	     20.47854786	    -12.99009678	     -2.56498000	    -69.54710857	    -11.40949926	      4.99814598	      0.00000000	     18.92015461	    -10.36038386	     -1.38453580	    -59.05069144	     -9.97040001	     18.39574432	      0.00000000	      0.00000000	      0.00000000	      0.00000000
